<?xml version="1.0" encoding="utf-8"?>
<!-- Generator: Adobe Illustrator 16.0.0, SVG Export Plug-In . SVG Version: 6.00 Build 0)  -->
<!DOCTYPE svg PUBLIC "-//W3C//DTD SVG 1.1//EN" "http://www.w3.org/Graphics/SVG/1.1/DTD/svg11.dtd">
<svg version="1.1" id="Calque_1" xmlns="http://www.w3.org/2000/svg" xmlns:xlink="http://www.w3.org/1999/xlink" x="0px" y="0px"
	 width="234.249px" height="123.196px" viewBox="865.541 0 234.249 123.196" enable-background="new 865.541 0 234.249 123.196"
	 xml:space="preserve">
<g>
	<path fill="#A02427" d="M918.922,53.575c-1.123,1.301-0.528,2.858-0.55,4.283c-0.09,5.832-2.93,9.125-8.896,9.804
		c-2.213,0.251-4.498,0.253-6.712,0.012c-4.985-0.545-6.986-2.965-6.993-8.064c-0.007-5.976-0.01-11.952-0.016-17.928
		c-0.004-3.196,0.577-6.228,2.926-8.578c0.826-0.827,1-1.64,0.797-2.67c-0.616-3.146,0.924-4.367,3.867-4.333
		c-0.004,2.383,1.896,2.051,3.256,2.057c1.771,0.007,1.02-1.468,1.07-2.427c0.401-2.504,1.096-4.975,0.869-7.552
		c2.247,0.986,1.175,2.754,0.972,4.279c-0.232,1.758-0.782,3.57,2.167,3.277c1.088-0.107,1.918,0.69,2.154,1.727
		c1.45,6.374,5.889,12.034,4.572,19.065C918.339,48.893,918.014,51.279,918.922,53.575z M917.01,52.661c0.054,0,0.106,0,0.159,0.001
		c0-2.123,0.061-4.248-0.019-6.367c-0.063-1.746-0.201-3.499-0.462-5.225c-1.119-7.442-2.274-8.441-9.535-8.44
		c-0.249,0-0.5,0-0.749,0c-6.871,0.003-8.546,1.39-8.983,8.33c-0.338,5.355-0.225,10.739-0.293,16.11
		c-0.095,7.344-0.088,7.35,7.208,8.758c0.854,0.165,1.729,0.305,2.595,0.311c6.428,0.044,9.683-3.051,9.901-9.358
		C916.879,55.407,916.95,54.034,917.01,52.661z M908.942,29.568c-0.09,0.08-0.242,0.157-0.247,0.242
		c-0.007,0.085,0.139,0.179,0.217,0.27c0.089-0.081,0.243-0.157,0.248-0.242C909.165,29.752,909.021,29.658,908.942,29.568z"/>
	<path fill="#D58AEA" d="M934.048,96.222c-4.299-1.363-5.501-4.468-5.174-8.684c0.289-3.726,0.173-7.482,0.371-11.218
		c0.064-1.219-0.072-2.3-1.426-1.694c-2.774,1.242-3.104-0.396-3.629-2.435c-1.478-5.745-1.539-5.736,4.132-7.94
		c1.512-0.587,3.075-1.049,4.557-1.703c1.935-0.853,3.29-0.674,4.84,1.095c2.657,3.031,5.882,2.821,8.578-0.379
		c1.051-1.247,1.785-1.534,3.422-1.097c2.913,0.777,5.616,2.046,8.447,2.978c2.356,0.776,3.593,2.079,2.461,4.382
		c-1.131,2.302-0.056,6.681-4.883,5.905c-2.268-0.364-2.128,1.182-2.146,2.529c-0.063,4.621-0.141,9.245-0.032,13.863
		c0.049,2.017-0.467,3.375-2.49,4.01c-1.498,0.471-3.157,1.507-3.161,2.904c-0.011,3.801-2.467,3.342-4.835,3.323
		c-0.374-0.003-0.749,0.021-1.124,0.026c-6.186,0.087-6.186,0.087-7.931-5.892c5.267,4.579,5.267,4.512,9.217,4.557
		c2.044,0.023,3.623,0.007,3.691-2.781c0.038-1.526,1.51-2.619,2.913-3.178c1.979-0.788,2.309-2.082,2.311-4.081
		c0.007-4.727-0.555-9.473,0.386-14.192c0.387-1.945,0.607-3.24,3.266-2.522c2.788,0.753,2.487-2.021,3.086-3.586
		c0.577-1.513,1.324-3.113-1.047-3.939c-2.703-0.942-5.375-1.98-8.048-3.011c-0.815-0.314-1.548-0.224-1.964,0.506
		c-1.482,2.608-4.194,2.598-6.615,3.222c-0.246-0.059-0.492-0.118-0.738-0.177c-4.33-4.353-8.945-2.846-13.537-0.581
		c-0.969,0.477-3.338,0.2-2.051,2.432c0.967,1.675-0.082,5.303,3.428,4.613c2.828-0.556,2.574,1.019,2.608,2.625
		c0.085,3.846,0.091,7.695,0.128,11.542c-0.021,1.025-0.044,2.05-0.064,3.076c-0.377,1.436,0.229,2.313,1.525,2.914
		C933.57,94.123,934.385,94.859,934.048,96.222z"/>
	<path fill="#2C6579" d="M986.168,88.162c-4.738-3.224-6.117-8.576-3.431-13.315c1.984-3.505,6.022-5.047,9.597-3.683
		c1.451,0.554,2.671,2.399,4.467-0.003c0.802-1.071,2.054,0.423,2.06,1.616c0.021,5.61,0.562,11.249-0.295,16.822
		c-0.547,3.567-3.273,5.085-6.558,5.767c-1.335,0.278-1.849-0.302-1.688-1.598c0.002-0.303,0.005-0.607,0.008-0.912
		c2.997-0.831,5.796-1.832,5.076-6.305c-2.353,2.64-5.504,1.974-8.208,2.826C986.853,88.972,986.51,88.567,986.168,88.162z
		 M995.682,79.809c-0.025-3.643-2.377-6.18-5.643-6.09c-3.072,0.084-5.321,2.597-5.386,6.021c-0.068,3.632,2.208,6.208,5.51,6.233
		C993.503,85.998,995.708,83.536,995.682,79.809z"/>
	<path fill="#286377" d="M967.554,57.659c-0.753,1.822-0.268,3.708-0.391,5.543c-0.073,1.083-0.278,2.101-1.544,2.141
		c-1.272,0.04-1.612-0.944-1.613-2.042c-0.005-6.721-0.009-13.441,0.002-20.163c0.002-1.306,0.997-2.707,1.899-1.793
		c1.906,1.93,3.133,0.407,4.691-0.133c3.354-1.164,6.135-0.067,8.314,2.549c2.621,3.146,2.718,8.485,0.311,11.875
		c-2.128,2.993-5.039,3.847-8.539,3.043C969.629,58.436,968.813,57.435,967.554,57.659z M977.75,50.057
		c0.062-3.467-2.086-6.127-5.07-6.285c-3.125-0.165-5.633,2.574-5.626,6.146c0.008,3.476,2.212,5.977,5.309,6.02
		C975.519,55.98,977.688,53.611,977.75,50.057z"/>
	<path fill="#2C6579" d="M1002.135,25.598c1.999-6.021,9.464-6.661,13.213-3.153c1.921,1.797,2.546,3.313-0.294,4.86
		c-2.293,1.25-4.458,2.734-6.674,4.123c-0.622,0.39-1.587,0.684-1.502,1.495c0.095,0.912,1.073,1.314,1.854,1.663
		c2.7,1.208,5.875,0.015,7.664-2.879c0.615-0.998,0.9-2.854,2.495-1.908c1.522,0.903,0.567,2.467-0.107,3.637
		c-1.842,3.189-4.738,4.905-8.335,4.756c-4.184-0.173-6.769-2.785-8.193-6.609C1001.522,29.603,1000.951,27.618,1002.135,25.598z
		 M1005.012,30.004c0.586-0.263,1.154-0.454,1.656-0.756c1.688-1.017,3.364-2.053,5.017-3.128c0.477-0.311,1.22-0.537,1.073-1.319
		c-0.153-0.833-0.886-1.091-1.595-1.313C1007.327,22.288,1004.252,25.425,1005.012,30.004z"/>
	<path fill="#2C6579" d="M918.922,53.575c-0.908-2.295-0.583-4.682-0.516-7.047c0.709-1.003,1.325-2.088,2.14-2.997
		c2.278-2.542,5.118-3.524,8.423-2.448c3.242,1.056,5.11,3.431,5.766,6.744c0.359,1.829-0.304,2.873-2.331,2.846
		c-2.865-0.039-5.732,0.022-8.6-0.007c-2.523-0.025-2.306,1.266-1.367,2.834c1.534,2.566,4.89,3.181,8.293,1.502
		c0.994-0.49,2.074-1.52,2.891-0.162c0.914,1.523-0.643,2.217-1.605,2.844C928.037,60.279,920.815,59.267,918.922,53.575z
		 M926.196,48.225c1.595-0.755,4.363,1.107,4.717-1.289c0.313-2.133-2.072-3.173-4.247-3.214c-2.341-0.044-4.708,0.932-4.531,3.351
		C922.292,49.234,924.856,47.484,926.196,48.225z"/>
	<path fill="#286377" d="M1011.565,89.036c-4.59,0.008-7.935-2.735-8.72-7.148c-0.857-4.824,1.38-9.211,5.473-10.726
		c3.563-1.318,7.661,0.195,9.654,3.657c0.875,1.52,1.753,3.255,0.855,4.941c-0.867,1.632-2.706,0.787-4.114,0.863
		c-2.241,0.122-4.495,0.065-6.743,0.027c-2.212-0.037-2.231,0.998-1.362,2.577c1.527,2.776,4.936,3.508,8.544,1.771
		c0.967-0.464,2.013-1.597,2.815-0.07c0.686,1.3-0.545,2.008-1.445,2.657C1015.05,88.647,1013.339,88.963,1011.565,89.036z
		 M1010.706,78.083c0.62,0,1.253,0.08,1.855-0.018c1.018-0.165,2.571,0.65,2.941-0.624c0.425-1.46-0.902-2.406-2.109-3.128
		c-1.378-0.823-2.855-0.851-4.301-0.34c-1.465,0.519-2.976,1.583-2.801,3.105c0.222,1.932,2.17,0.642,3.302,0.988
		C1009.937,78.171,1010.334,78.083,1010.706,78.083z"/>
	<path fill="#286377" d="M977.656,81.486c0,1.743,0.006,3.487-0.003,5.229c-0.006,0.965-0.358,1.81-1.397,1.89
		c-1.266,0.098-1.717-0.795-1.727-1.922c-0.023-2.739-0.003-5.479-0.03-8.219c-0.027-2.637-0.763-4.804-3.946-4.71
		c-2.98,0.087-4.538,1.801-4.62,4.758c-0.074,2.613-0.014,5.229-0.063,7.844c-0.021,1.015-0.172,2.152-1.463,2.242
		c-1.525,0.107-1.789-1.069-1.794-2.263c-0.02-4.358-0.023-8.717,0.009-13.075c0.01-1.291,1.054-2.698,1.953-1.846
		c1.926,1.825,3.101,0.467,4.684-0.211c4.086-1.751,7.847,0.555,8.288,5.057c0.169,1.726,0.027,3.482,0.027,5.225
		C977.601,81.486,977.628,81.486,977.656,81.486z"/>
	<path fill="#FD7ECC" d="M1025.507,84.945c2.013,0.376,2.066,2.305,2.745,3.647c1.514,2.997,2.656,6.188,4.258,9.132
		c2.082,3.827,4.283,4.815,8.403,3.484c5.697-1.839,11.25-4.126,16.14-7.688c3.994-2.909,4.838-5.452,3.109-10.02
		c-2.697-7.125-6.857-13.547-10.106-20.409c-1.695-3.585-5.317-2.552-8.063-3.622c0.919-0.674,1.837-1.349,2.75-2.027
		c1.081,0.464,2.166,0.931,3.25,1.399c4.076,2.936,5.324,7.741,7.598,11.817c2.355,4.224,3.967,8.855,6.148,13.185
		c1.68,3.333,0.769,6.095-1.441,8.544c-5.604,6.206-13.064,8.944-20.977,10.543c-3.576,0.723-6.409-1-7.935-4.284
		C1029.295,94.142,1027.455,89.518,1025.507,84.945z"/>
	<path fill="#2C6579" d="M944.7,59.037c-2.509-0.117-4.673-0.565-6.346-2.306c-0.727-0.757-1.354-1.577-0.414-2.57
		c0.824-0.873,1.606-0.326,2.275,0.261c1.453,1.275,3.04,2.197,5.051,1.956c1.289-0.155,2.543-0.606,2.707-2.092
		c0.145-1.297-0.813-1.996-1.946-2.395c-1.287-0.454-2.591-0.866-3.878-1.318c-2.596-0.911-4.42-2.48-3.904-5.498
		c0.496-2.917,2.734-3.983,5.372-4.331c2.053-0.27,3.967,0.26,5.62,1.52c0.778,0.594,1.775,1.316,1.073,2.442
		c-0.713,1.145-1.691,0.667-2.527-0.025c-1.235-1.023-2.675-1.256-4.209-1.092c-1.05,0.111-1.974,0.442-2.146,1.672
		c-0.16,1.135,0.32,1.944,1.386,2.349c1.158,0.44,2.325,0.868,3.514,1.22c2.882,0.856,5.19,2.36,4.604,5.738
		C950.335,57.999,947.556,58.871,944.7,59.037z"/>
	<path fill="#2C6579" d="M1061.215,59.037c-2.381-0.086-4.444-0.475-6.108-1.98c-0.845-0.763-1.777-1.661-0.783-2.833
		c0.899-1.061,1.792-0.274,2.553,0.387c1.472,1.282,3.115,2.077,5.11,1.73c1.136-0.197,2.232-0.641,2.437-1.952
		c0.21-1.356-0.729-2.034-1.844-2.443c-1.514-0.557-3.082-0.974-4.576-1.578c-2.119-0.856-3.527-2.271-3.396-4.789
		c0.133-2.511,1.729-3.792,3.851-4.487c2.802-0.918,5.403-0.379,7.651,1.571c0.712,0.617,1.127,1.425,0.411,2.259
		c-0.591,0.69-1.409,0.477-2.01-0.018c-1.221-1.007-2.584-1.476-4.143-1.344c-1.136,0.096-2.298,0.242-2.563,1.666
		c-0.254,1.37,0.561,2.088,1.7,2.518c1.043,0.394,2.101,0.763,3.171,1.074c2.87,0.834,5.244,2.285,4.704,5.676
		C1066.834,57.928,1064.058,58.833,1061.215,59.037z"/>
	<path fill="#366C7F" d="M1019.687,43.247c1.39-1.991,4.032-2.821,4.517-5.84c0.188-1.17,2.341-0.355,2.452,1.146
		c0.146,1.954,0.728,2.979,2.843,2.833c0.846-0.059,1.351,0.563,1.329,1.446c-0.021,0.908-0.679,1.463-1.434,1.402
		c-3.025-0.241-2.61,1.809-2.589,3.659c0.021,1.741,0.002,3.482,0.011,5.223c0.006,1.423-0.006,2.85,2.102,2.621
		c0.852-0.092,1.496,0.313,1.518,1.199c0.021,0.847-0.676,1.294-1.369,1.598c-2.424,1.061-5.158-0.456-5.559-3.245
		c-0.246-1.709-0.203-3.479-0.108-5.211c0.169-3.124,0.292-6.144-3.744-6.975C1019.653,43.102,1019.687,43.247,1019.687,43.247z"/>
	<path fill="#2C6579" d="M1047.992,58.842c-1.084-0.468-2.169-0.936-3.25-1.399c-1.544-3.061-0.616-6.35-0.851-9.534
		c-0.119-1.636,0.562-3.638-2.188-3.796c-0.592-0.034-1.108-0.578-1.119-1.297c-0.014-0.91,0.574-1.411,1.385-1.42
		c1.771-0.019,1.896-1.17,1.976-2.501c0.063-1.051,0.4-2.028,1.751-1.905c1.064,0.097,1.526,0.919,1.458,1.834
		c-0.148,1.939,0.614,2.732,2.556,2.533c0.839-0.086,1.475,0.403,1.53,1.273c0.066,1.067-0.667,1.712-1.613,1.621
		c-2.432-0.234-2.521,1.176-2.438,2.979c0.099,2.109,0.004,4.226,0.038,6.338c0.018,0.98-0.048,2.078,1.403,2.166
		c0.946,0.057,2.305-0.221,2.193,1.248C1050.705,58.541,1049.208,58.616,1047.992,58.842z"/>
	<path fill="#E2C676" d="M990.326,92.856c-0.003,0.305-0.006,0.609-0.008,0.912c-0.459,1.119-2.628,2.02-0.393,3.484
		c0.903,0.591,1.417,1.446,0.608,2.48c-0.749,0.959-1.699,0.732-2.665,0.32c-1.44-0.614-3.169-1.829-3.027,1.292
		c-1.903-0.45-0.435-3.504-2.786-3.611c-0.758-0.414-1.507-0.846-2.276-1.235c-0.979-0.495-2.31-0.789-2.086-2.222
		c0.2-1.299,1.63-0.778,2.358-1.219c2.232-1.35,3.404-4.073,6.109-4.897c0.348,0.407,0.689,0.811,1.032,1.217
		C988.881,89.958,989.242,91.732,990.326,92.856z M985.798,94.918c0.962-0.322,2.262,0.166,2.33-1.366
		c0.082-1.813-1.452-1.717-2.537-2.032c-1.217-0.354-1.954,0.313-1.884,1.509C983.782,94.294,984.623,94.938,985.798,94.918z"/>
	<path fill="#FD7ECC" d="M1042.761,63.942c2.632,2.104,3.039,5.056,1.814,7.738c-1.651,3.618-4.943,5.429-8.976,5.826
		c-3.363,0.332-5.026-1.708-6.259-4.325c-0.787-1.672-0.963-3.866-2.173-5.044c-1.363-1.327-2.536,2.237-4.466,1.078
		c0.505-1.104,1.6-1.536,2.502-2.177c1.711-1.217,2.995-0.983,3.718,1.136c0.322,0.941,0.664,1.883,1.089,2.781
		c2.115,4.477,4.723,5.802,8.49,4.361c4.262-1.628,5.648-4.502,4.48-9.169C1042.805,65.438,1042.829,64.679,1042.761,63.942z"/>
	<path fill="#986C84" d="M1001.463,60.083c-0.883,1.044-0.216,2.077-0.035,3.148c0.396,2.351,0.069,4.808-2.313,5.674
		c-2.349,0.854-5.172,1.352-6.677-1.834c0.75-1.397,2.603-0.385,3.444-1.579c1.976,0.182,1.956-1.534,2.461-2.677
		c0.282-0.64-0.255-1.148-0.729-1.569c-0.251,0.915-2.276-0.812-1.788,1.201c-1.185-0.003-2.368-0.006-3.553-0.009
		c1.385-2.411,3.3-3.46,6.082-2.454c0.938,0.339,1.911,0.456,2.705-0.402C1001.258,59.699,1001.394,59.865,1001.463,60.083z"/>
	<path fill="#AB879A" d="M1004.521,60.976c1.78-0.12,3.34-2.024,5.306-0.661c0.448,2.592,2.892,4.571,2.297,7.483
		c0,0,0.024,0.018,0.022,0.017c-1.883,0.554-3.944-0.382-5.763,0.699c-4.442-1.601-2-4.863-1.828-7.577L1004.521,60.976z"/>
	<path fill="#286377" d="M1034.5,49.798c0-2.232,0.002-4.465-0.001-6.698c-0.002-1.109,0.361-2.035,1.601-2.055
		c1.022-0.017,1.509,0.741,1.512,1.729c0.011,4.713,0.019,9.426-0.013,14.138c-0.006,0.958-0.471,1.729-1.545,1.701
		c-1.047-0.027-1.509-0.78-1.521-1.746c-0.033-2.356-0.012-4.712-0.012-7.069C1034.514,49.798,1034.507,49.798,1034.5,49.798z"/>
	<path fill="#986C84" d="M1019.687,43.247c0,0-0.032-0.145-0.033-0.145c-0.053,1.083-0.104,2.166-0.166,3.516
		c-1.852-2.268-4.365-2.03-6.658-2.461c-0.1-0.497-0.25-1.013-0.87-0.959c-0.609,0.054-0.688,0.586-0.718,1.091
		c-0.756-0.008-1.514-0.016-2.271-0.024c-0.479-0.537-1.047-0.54-1.657-0.274l0.091-0.187c0,0-0.124,0.167-0.121,0.164
		c-0.021-0.214-0.043-0.425-0.066-0.636c-0.143,0.154-0.286,0.308-0.429,0.461c-0.75,0.048-1.501,0.096-2.252,0.145
		c-0.603-0.111-1.204-0.222-1.506,0.526c-0.271,0.009-0.543,0.018-0.814,0.026c-0.098-0.159-0.195-0.319-0.294-0.478
		c-0.072,0.168-0.146,0.337-0.216,0.505c-1.988-1.17-4.164,0.244-6.188-0.453c0.394-0.632-2.221-1.604,0.227-2.003
		c1.943-0.059,3.89-0.119,5.835-0.178c4.954,0.092,9.909,0.157,14.862,0.293C1017.596,42.207,1019,41.71,1019.687,43.247z"/>
	<path fill="#F9E38C" d="M982.057,97.734c2.353,0.106,0.882,3.161,2.786,3.611c0.204,2.117-0.105,4.03-2.531,4.616
		c-1.588,0.383-3.065-0.165-3.711-1.736c-0.881-2.145-0.146-3.817,1.907-4.972C981.116,98.911,981.545,98.249,982.057,97.734z"/>
	<path fill="#AB879A" d="M1001.463,60.083c-0.069-0.217-0.205-0.384-0.401-0.5c0.469-1.85-1.107-2.553-2.196-3.772
		c5.274-1.257,10.564,0.043,15.764-0.634c-2.162,1.897-4.942,0.729-7.388,1.153c-2.363,0.411-4.035,0.977-3.408,3.836
		c-0.104,0.097-0.206,0.193-0.311,0.289C1002.836,60.332,1002.149,60.207,1001.463,60.083z"/>
	<path fill="#AB879A" d="M995.744,42.06c-2.446,0.4,0.167,1.372-0.226,2.004c-1.469,1.758-3.373,0.538-5.068,0.728
		c-1.961,0.221-4.458-0.576-4.646,2.684c-0.256-0.007-0.512-0.014-0.768-0.021c-0.106-2.134-0.684-4.381,1.451-5.971
		c1.086,0.685,2.22,0.495,3.359,0.186c0.514,0.553,1.037,0.482,1.568,0.028c1.456-0.006,2.913-0.013,4.369-0.021
		C995.726,41.8,995.712,41.927,995.744,42.06z"/>
	<path fill="#AB879A" d="M1002.135,25.598c-1.184,2.02-0.61,4.005,0.119,5.985c-1.434,1.901-0.255,4.124-0.753,6.141
		c-0.251-0.006-0.502-0.011-0.753-0.017c-0.953-3.859-0.583-7.819-0.748-11.726C999.92,24.094,1001.396,25.732,1002.135,25.598z"/>
	<path fill="#FD7ECC" d="M1021.784,70.918c-0.876,5.257,2.856,9.283,3.753,14.067C1022.78,80.698,1019.044,76.672,1021.784,70.918z"
		/>
	<path fill="#AB879A" d="M992.274,62.439c1.184,0.003,2.367,0.006,3.55,0.009c0.911,0.997,0.644,2.018,0.059,3.044
		c-0.843,1.193-2.694,0.181-3.444,1.579C991.238,65.567,991.156,64.024,992.274,62.439z"/>
	<path fill="#986C84" d="M1000.748,37.707c0.251,0.006,0.502,0.011,0.753,0.017c0.036,1.323,0.071,2.646,0.105,3.969
		c-1.939-0.005-3.882-0.01-5.821-0.015c-1.456,0.006-2.913,0.013-4.368,0.02c-0.521-0.01-1.046-0.02-1.569-0.028
		c-1.141,0.31-2.273,0.499-3.359-0.186c-0.242-0.019-0.552,0.051-0.714-0.072c-0.702-0.536-0.129-0.708,0.299-0.721
		c3.064-0.096,6.134-0.116,9.197-0.235c1.582-0.063,3.158-0.28,4.737-0.427c0.8,0.189,0.63-0.345,0.586-0.786
		C1000.646,38.73,1000.696,38.218,1000.748,37.707z"/>
	<path fill="#986C84" d="M1012.122,67.798c0.595-2.912-1.85-4.892-2.297-7.483c2.19-0.614,2.945,0.996,3.339,2.506
		C1013.611,64.535,1014.706,66.624,1012.122,67.798z"/>
	<path fill="#AB879A" d="M988.438,53.224c2.689,1.479,5.494,2.437,8.506,2.832C993.588,56.64,990.305,57.011,988.438,53.224z"/>
	<path fill="#986C84" d="M989.902,30.429c-1.671,2.217-3.244,4.498-4.443,7.035c-0.015-3.237,1.466-5.629,3.937-7.476
		C989.519,30.189,989.687,30.337,989.902,30.429z"/>
	<path fill="#A02427" d="M904.065,18.562c-0.086,2.673,2.357,4.526,2.322,7.181c-0.509,0.975-1.049,0.185-1.578,0.027
		C905.392,23.281,901.547,21.25,904.065,18.562z"/>
	<path fill="#986C84" d="M904.812,25.77c0.528,0.158,1.068,0.948,1.577-0.027c0.43-0.004,0.856-0.009,1.283-0.013
		c-0.052,0.96,0.699,2.435-1.071,2.428c-1.359-0.006-3.259,0.326-3.255-2.057C903.835,25.99,904.322,25.88,904.812,25.77z"/>
	<path fill="#286377" d="M1036.233,38.59c-1.196,0.095-1.885-0.375-1.858-1.659c0.021-1.038,0.497-1.573,1.572-1.596
		c1.182-0.026,1.907,0.419,1.89,1.679C1037.821,38.037,1037.305,38.614,1036.233,38.59z"/>
	<path fill="#AB879A" d="M1018.238,49.432c-0.24,2.057-1.063,3.784-3.204,5.313C1015.447,52.234,1016.884,50.856,1018.238,49.432z"
		/>
	<path fill="#986C84" d="M1006.383,68.514c1.817-1.081,3.88-0.145,5.763-0.699C1010.53,70.564,1008.443,69.427,1006.383,68.514z"/>
	<path fill="#AB879A" d="M989.396,29.988c0.942-1.767,2.641-2.44,4.394-3.035c0.138,0.15,0.274,0.302,0.409,0.454
		c-1.433,1.007-2.864,2.014-4.296,3.022C989.687,30.337,989.519,30.189,989.396,29.988z"/>
	<path fill="#EBEFEE" d="M995.785,41.678c1.939,0.005,3.882,0.009,5.821,0.015c0.002,0-0.027,0.19-0.027,0.19
		c-1.945,0.059-3.891,0.119-5.835,0.178C995.712,41.927,995.726,41.8,995.785,41.678z"/>
	<path fill="#AB879A" d="M985.036,47.454c0.256,0.007,0.512,0.014,0.768,0.021c0.432,0.315,0.803,0.856,0.178,1.086
		C985.137,48.872,985.139,48.022,985.036,47.454z"/>
	<path fill="#AB879A" d="M1011.24,44.289c0.028-0.505,0.107-1.037,0.718-1.091c0.62-0.054,0.771,0.462,0.87,0.959
		C1012.328,44.545,1011.792,44.511,1011.24,44.289z"/>
	<path fill="#FBFAFB" d="M1003.029,44.463c0.302-0.748,0.903-0.637,1.506-0.526C1004.315,44.924,1003.981,45.577,1003.029,44.463z"
		/>
	<path fill="#AB879A" d="M1007.313,43.991c0.61-0.265,1.179-0.263,1.657,0.274C1008.216,45.394,1007.737,44.855,1007.313,43.991z"/>
	<path fill="#FBF9F9" d="M997.555,26.003c0.089-0.035,0.177-0.07,0.264-0.105c0.025,0.134,0.053,0.268,0.077,0.402
		c-0.097-0.018-0.211-0.011-0.283-0.063C997.563,26.202,997.572,26.084,997.555,26.003z"/>
	<path fill="#FBFAFB" d="M986.751,50.177c-0.085,0.034-0.17,0.067-0.254,0.101c-0.025-0.13-0.05-0.259-0.075-0.389
		c0.094,0.017,0.205,0.01,0.274,0.061C986.744,49.985,986.734,50.099,986.751,50.177z"/>
	<path fill="#FBF9F9" d="M1000.594,39.242c0.044,0.441,0.214,0.975-0.586,0.786C1000.203,39.766,1000.397,39.504,1000.594,39.242z"
		/>
	<path fill="#AB879A" d="M993.788,26.953c0.411-0.397,1.087-0.917,1.387-0.354c0.424,0.799-0.59,0.578-0.978,0.807
		C994.063,27.255,993.926,27.104,993.788,26.953z"/>
	<path fill="#FD7ECC" d="M1042.012,62.439c0.607,0.341,0.827,0.875,0.776,1.546C1041.905,63.783,1041.932,63.125,1042.012,62.439z"
		/>
	<path fill="#AB879A" d="M1006.787,43.792c0.143-0.153,0.286-0.307,0.429-0.461c0.023,0.211,0.047,0.422,0.066,0.636
		C1007.074,44.025,1006.91,43.966,1006.787,43.792z"/>
	<path fill="#FD7ECC" d="M1041.228,61.458c0.272,0.342,0.545,0.684,0.817,1.025C1041.413,62.427,1041.286,61.971,1041.228,61.458z"
		/>
	<path fill="#AB879A" d="M1004.555,60.937c-0.507,0.186-0.789-0.101-1.027-0.483c0.1-0.093,0.202-0.189,0.306-0.286
		c0.229,0.27,0.459,0.539,0.688,0.809L1004.555,60.937z"/>
	<path fill="#FBFAFB" d="M1001.705,44.517c0.071-0.168,0.144-0.337,0.216-0.505c0.098,0.159,0.196,0.318,0.294,0.478
		C1002.045,44.49,1001.874,44.499,1001.705,44.517z"/>
	<path fill="#A02427" d="M908.589,18.231c-0.896,0.041-0.925-0.521-0.818-1.177C908.142,17.377,908.974,17.38,908.589,18.231z"/>
	<path fill="#2C6579" d="M1048.039,84.095c3.929,1.818,5.019,4.41,3.164,7.522c-1.914,3.215-7.57,5.115-10.095,3.388
		c-0.645-0.441-1.162-0.955-0.778-1.832c0.379-0.865,1.149-0.851,1.895-0.756c2.688,0.34,5.261,0.396,6.808-2.43
		c0.631-2.518-0.944-2.924-2.812-2.712c-1.678,0.19-3.319,0.696-4.979,1.063c-2.343-0.136-4.515-0.559-5.307-3.229
		c-0.689-2.328,0.212-4.181,1.896-5.679c2.085-1.854,4.549-2.543,7.297-1.864c0.769,0.189,1.444,0.818,1.182,1.625
		c-0.544,1.667-2.058,0.914-3.202,1.053c-0.486,0.046-0.981,0.06-1.466,0.144c-2.323,0.405-2.589,2.544-2.362,4.001
		c0.225,1.452,2.086,0.74,3.246,0.599C1044.373,84.765,1046.202,84.4,1048.039,84.095z"/>
	<path fill="#F68CCF" d="M1048.039,84.095c-1.837,0.305-3.666,0.669-5.513,0.895c-1.161,0.142-3.022,0.854-3.247-0.599
		c-0.227-1.457,0.039-3.596,2.362-4.001c0.483-0.084,0.979-0.098,1.467-0.144c0.656,1.188,1.486,1.845,2.982,1.351
		C1048.928,80.658,1048.44,82.439,1048.039,84.095z"/>
	<path fill="#F68CCF" d="M1041.242,88.339c1.657-0.367,3.301-0.873,4.979-1.063c1.866-0.212,3.441,0.194,2.812,2.712
		c-1.25-0.796-3.016-1.08-3.811-0.176C1042.285,93.15,1042.021,90.25,1041.242,88.339z"/>
	<path fill="#986C84" d="M908.942,29.568c0.078,0.09,0.223,0.184,0.218,0.27c-0.005,0.085-0.159,0.161-0.248,0.242
		c-0.078-0.09-0.224-0.185-0.217-0.27C908.7,29.725,908.854,29.648,908.942,29.568z"/>
	<path fill="#2C6579" d="M941.219,67.189c1.919,1.311,2.177,3.569,3.011,5.463c2.157,4.901,4.182,9.863,6.198,14.824
		c0.439,1.082,1.362,2.483-0.239,3.272c-1.67,0.822-1.996-0.823-2.618-1.847c-0.798-1.309-0.574-3.603-2.514-3.778
		c-2.967-0.268-6.014-0.268-8.96,0.123c-1.335,0.177-1.378,2.201-1.925,3.41c-0.649,1.436-1.113,2.912-3.18,2.064
		c0.021-1.026,0.042-2.051,0.063-3.077c0.976-2.097,1.945-4.196,2.924-6.292c2.222-4.755,3.452-9.959,6.5-14.34
		C940.726,67.072,940.973,67.13,941.219,67.189z M937.006,81.79c2.783-0.188,5.675,1.452,7.051-0.833
		c0.612-1.017-0.82-4.695-3.02-4.829C937.644,75.921,938.554,79.604,937.006,81.79z"/>
	<path fill="#2C6579" d="M985.798,94.918c-1.175,0.02-2.016-0.625-2.091-1.889c-0.07-1.195,0.667-1.862,1.884-1.509
		c1.085,0.315,2.619,0.219,2.537,2.032C988.06,95.084,986.76,94.596,985.798,94.918z"/>
	<path fill="#986C84" d="M995.883,65.492c0.585-1.027,0.854-2.047-0.059-3.044c-0.486-2.013,1.539-0.287,1.79-1.201
		c0.475,0.42,1.012,0.929,0.729,1.569C997.839,63.958,997.856,65.674,995.883,65.492z"/>
	<path fill="#EBEFEE" d="M989.848,41.669c0.523,0.009,1.048,0.018,1.569,0.028C990.885,42.151,990.36,42.222,989.848,41.669z"/>
	<path fill="#2C6579" d="M901.328,46.691c0.005-2.998-0.025-5.996,0.021-8.993c0.019-1.152,0.207-2.393,1.775-2.319
		c1.521,0.071,1.643,1.264,1.643,2.45c0.002,4.747,0.221,9.507-0.072,14.236c-0.192,3.119,0.973,3.892,3.783,3.595
		c1.854-0.196,3.743-0.03,5.617-0.008c0.982,0.012,1.767,0.431,1.789,1.482c0.023,1.052-0.746,1.546-1.722,1.555
		c-3.622,0.033-7.246,0.079-10.866,0c-1.938-0.042-1.952-1.605-1.965-3.003C901.304,52.688,901.323,49.689,901.328,46.691z"/>
	<path fill="#D58AEA" d="M937.006,81.79c1.548-2.186,0.638-5.869,4.031-5.662c2.198,0.134,3.632,3.813,3.02,4.829
		C942.681,83.242,939.789,81.602,937.006,81.79z"/>
</g>
</svg>
